# xmcd
#
# Track frame offsets: 
#        150
#        15265
#        30283
#        42913
#        57810
#        71972
#        82417
#        95026
#        105747
#        117466
#        128651
#
# Disc length: 1875 seconds
#
# Revision: 0
# Processed by: cddbd v1.5.2PL0 Copyright (c) Steve Scherf et al.
# Submitted via: ExactAudioCopy v0.99pb4
#
DISCID=9107510b
DTITLE=Edwin Starr and Blinky - Just We Two
DYEAR=2004
DGENRE=Soul
TTITLE0=You've Made Me So Very Happy
TTITLE1=I'm So Thankful
TTITLE2=Oh How Happy
TTITLE3=Let It Be Me
TTITLE4=I'm Glad You Belong To Me
TTITLE5=I'll Understand
TTITLE6=We'll Find A Way
TTITLE7=Sweet Joy Of Life
TTITLE8=Can't We Be Strangers Again
TTITLE9=I See A Rainbow
TTITLE10=Ooo Baby Baby
EXTD=
EXTT0=
EXTT1=
EXTT2=
EXTT3=
EXTT4=
EXTT5=
EXTT6=
EXTT7=
EXTT8=
EXTT9=
EXTT10=
PLAYORDER=
